<svg xmlns="http://www.w3.org/2000/svg" viewBox="0 0 240 180" role="img" aria-label="Cartoon pigeon">
  <defs>
    <radialGradient id="pgBody" cx="45%" cy="40%" r="70%">
      <stop offset="0%" stop-color="#dbe5f1"/>
      <stop offset="100%" stop-color="#a6b6cb"/>
    </radialGradient>
    <linearGradient id="pgWing" x1="0" y1="0" x2="1" y2="1">
      <stop offset="0%" stop-color="#8da2bf"/>
      <stop offset="100%" stop-color="#748cae"/>
    </linearGradient>
  </defs>

  <ellipse cx="126" cy="104" rx="58" ry="38" fill="url(#pgBody)"/>
  <ellipse cx="112" cy="102" rx="34" ry="22" fill="url(#pgWing)" opacity="0.95"/>

  <ellipse cx="75" cy="82" rx="25" ry="23" fill="#c6d4e6"/>
  <circle cx="66" cy="79" r="4" fill="#222"/>
  <circle cx="67" cy="78" r="1.1" fill="#fff"/>

  <polygon points="48,84 27,90 47,95" fill="#f0a63b"/>

  <path d="M172 86 C206 76, 223 97, 212 114 C196 110, 184 102, 172 95 Z" fill="#7f96b6"/>

  <rect x="101" y="136" width="4" height="19" rx="2" fill="#c97f42"/>
  <rect x="133" y="137" width="4" height="18" rx="2" fill="#c97f42"/>

  <path d="M96 154 L84 160" stroke="#c97f42" stroke-width="2" stroke-linecap="round"/>
  <path d="M103 154 L91 162" stroke="#c97f42" stroke-width="2" stroke-linecap="round"/>
  <path d="M136 154 L124 160" stroke="#c97f42" stroke-width="2" stroke-linecap="round"/>
  <path d="M143 154 L131 162" stroke="#c97f42" stroke-width="2" stroke-linecap="round"/>

  <circle cx="179" cy="103" r="3" fill="#fff" opacity="0.22"/>
  <circle cx="190" cy="108" r="2" fill="#fff" opacity="0.20"/>
</svg>